<svg width="81" height="80" viewBox="0 0 81 80" fill="none" xmlns="http://www.w3.org/2000/svg">
<path opacity="0.3" d="M80.5 40C80.5 62.0914 62.5914 80 40.5 80C18.4086 80 0.5 62.0914 0.5 40C0.5 17.9086 18.4086 0 40.5 0C62.5914 0 80.5 17.9086 80.5 40ZM11.4071 40C11.4071 56.0675 24.4325 69.0929 40.5 69.0929C56.5675 69.0929 69.5929 56.0675 69.5929 40C69.5929 23.9325 56.5675 10.9071 40.5 10.9071C24.4325 10.9071 11.4071 23.9325 11.4071 40Z" fill="#2F2E30"/>
<circle cx="40.5" cy="40" r="29" fill="black"/>
<path d="M40.9273 38.1456V38.6456L41.4273 38.6456C42.0911 38.6457 42.7385 38.8514 43.2805 39.2346C43.8224 39.6178 44.2323 40.1596 44.4536 40.7854C44.4722 40.8382 44.4803 40.8942 44.4773 40.9502C44.4743 41.0062 44.4603 41.0611 44.4361 41.1117C44.4119 41.1624 44.378 41.2077 44.3362 41.2452C44.2945 41.2828 44.2458 41.3117 44.1929 41.3304C44.1399 41.3491 44.0839 41.3571 44.0278 41.3542C43.9718 41.3512 43.9169 41.3372 43.8663 41.313C43.764 41.2641 43.6854 41.1766 43.6476 41.0697L43.6475 41.0695C43.4851 40.6104 43.1844 40.213 42.7868 39.9319C42.3891 39.6509 41.9141 39.5 41.4272 39.5002L40.9273 39.5003V40.0002V43.7092V44.2092H41.4273C42.2784 44.2092 43.0947 44.5473 43.6965 45.1491C44.2983 45.7509 44.6364 46.5672 44.6364 47.4183C44.6364 48.2694 44.2983 49.0856 43.6965 49.6874C43.0947 50.2892 42.2784 50.6273 41.4273 50.6273H40.9273V51.1273V51.5546H40.0728V51.1273V50.6273L39.5728 50.6273C38.9091 50.6273 38.2617 50.4215 37.7197 50.0383C37.1777 49.6551 36.7679 49.1134 36.5466 48.4876L36.5468 48.4875L36.5417 48.4744C36.5212 48.4211 36.5115 48.3642 36.5133 48.3071C36.5151 48.25 36.5284 48.1939 36.5523 48.142C36.5762 48.0901 36.6102 48.0435 36.6525 48.005C36.6947 47.9665 36.7442 47.9369 36.798 47.9179C36.8519 47.8988 36.909 47.8908 36.9661 47.8942C37.0231 47.8977 37.0788 47.9125 37.13 47.9379C37.1812 47.9632 37.2268 47.9986 37.2641 48.0419C37.3014 48.0852 37.3296 48.1355 37.3471 48.1899L37.3494 48.1969L37.3518 48.2039C37.6763 49.1186 38.5479 49.7728 39.5728 49.7728H40.0728V49.2728V45.5637V45.0637H39.5728C38.7217 45.0637 37.9055 44.7256 37.3037 44.1238C36.7019 43.522 36.3638 42.7058 36.3638 41.8547C36.3638 41.0036 36.7019 40.1874 37.3037 39.5856C37.9055 38.9837 38.7217 38.6456 39.5728 38.6456H40.0728V38.1456V37.7184H40.9273V38.1456ZM40.0728 40.0002V39.5002H39.5728C38.9484 39.5002 38.3495 39.7482 37.9079 40.1898C37.4664 40.6314 37.2183 41.2302 37.2183 41.8547C37.2183 42.4792 37.4664 43.078 37.9079 43.5196C38.3495 43.9612 38.9484 44.2092 39.5728 44.2092H40.0728V43.7092V40.0002ZM40.9273 49.2728V49.7728H41.4273C42.0518 49.7728 42.6507 49.5247 43.0922 49.0832C43.5338 48.6416 43.7819 48.0427 43.7819 47.4183C43.7819 46.7938 43.5338 46.1949 43.0922 45.7534C42.6507 45.3118 42.0518 45.0637 41.4273 45.0637H40.9273V45.5637V49.2728Z" fill="#FAFAFA" stroke="#FAFAFA"/>
<path d="M47.7695 32.5772L48.0001 32.8203C49.8981 34.8211 51.4858 37.0948 52.7105 39.5658L52.7115 39.5677C53.9873 42.1703 54.7037 44.8133 54.5867 47.1301L54.5867 47.1301C54.4723 49.3912 53.5716 51.3572 51.5218 52.806L51.5218 52.806C49.4129 54.296 45.9467 55.3336 40.5354 55.3336C35.1198 55.3336 31.6397 54.3141 29.5132 52.8421L29.5129 52.842C27.4494 51.412 26.5376 49.472 26.4101 47.2374L47.7695 32.5772ZM47.7695 32.5772L47.457 32.698M47.7695 32.5772L47.457 32.698M47.457 32.698C43.1083 34.3797 37.8707 34.3798 33.5219 32.6998L33.3417 33.1662L32.9752 32.8262C31.1573 34.7856 29.4657 37.1897 28.251 39.6929L28.2509 39.6929M47.457 32.698L28.2509 39.6929M28.2509 39.6929C26.9804 42.3123 26.2784 44.9432 26.4101 47.2372L28.2509 39.6929ZM50.3428 26.1814C50.7832 26.3992 51.1642 26.6076 51.4775 26.7943L48.3457 31.3725L48.114 31.7111L48.4009 32.0044C50.3394 33.9861 52.1697 36.5164 53.4805 39.1919C54.7935 41.8721 55.5679 44.6624 55.441 47.1735C55.3151 49.6637 54.3054 51.8863 52.0163 53.5035C49.7051 55.1363 46.0382 56.1881 40.5364 56.1881C35.0332 56.1881 31.3544 55.1551 29.028 53.5441C26.7245 51.9489 25.6991 49.7543 25.558 47.2856C25.4157 44.7951 26.1758 42.0153 27.4835 39.3201C28.7889 36.6299 30.6229 34.0598 32.5812 31.9993L32.8589 31.7071L32.6323 31.3738L29.5225 26.7979C29.6798 26.7052 29.8536 26.6075 30.043 26.5066L30.043 26.5066L30.0447 26.5056C30.2353 26.4032 30.4408 26.2977 30.6614 26.1901L30.8573 26.0946C33.1034 25.024 36.6645 23.8094 40.5364 23.8094C44.4385 23.8094 47.9975 25.0428 50.2165 26.1201L50.3412 26.1806C50.3417 26.1808 50.3423 26.1811 50.3428 26.1814ZM49.7117 27.8618L50.2968 27.0064L49.2631 27.0808C46.6696 27.2675 43.6003 27.8748 40.6554 28.7274C38.6714 29.3006 36.4387 29.2193 34.3339 28.8311C33.8046 28.7329 33.279 28.6161 32.758 28.4809L31.4726 28.1471L32.2188 29.2457L33.9991 31.8671L34.091 32.0024L34.245 32.0572C38.1692 33.4543 42.7996 33.4542 46.7245 32.0592L46.5571 31.588L46.9698 31.8703L49.7117 27.8618ZM34.4877 27.9905L34.4881 27.9905C36.523 28.3653 38.6079 28.4298 40.4168 27.9058L40.4175 27.9056C42.3859 27.3322 44.388 26.8812 46.4122 26.5552L46.4768 25.5828C44.7353 25.0585 42.6905 24.664 40.5354 24.664C37.2536 24.664 34.2063 25.5779 32.08 26.4803L32.2754 26.9406L32.1328 27.4198C32.8897 27.645 33.6821 27.8413 34.4877 27.9905Z" fill="#FAFAFA" stroke="#FAFAFA"/>
</svg>
